<svg xmlns="http://www.w3.org/2000/svg" viewBox="0 0 512 512" width="512" height="512">
  <defs>
    <radialGradient id="g" cx="50%" cy="50%" r="50%">
      <stop offset="0%" stop-color="#38bdf8" />
      <stop offset="100%" stop-color="#0a0e1a" />
    </radialGradient>
  </defs>
  <rect width="512" height="512" rx="80" fill="#0a0e1a"/>
  <circle cx="256" cy="210" r="80" fill="none" stroke="#38bdf8" stroke-width="10"/>
  <circle cx="256" cy="210" r="16" fill="#38bdf8"/>
  <line x1="256" y1="130" x2="256" y2="80" stroke="#38bdf8" stroke-width="10" stroke-linecap="round"/>
  <line x1="336" y1="210" x2="386" y2="210" stroke="#38bdf8" stroke-width="10" stroke-linecap="round"/>
  <line x1="256" y1="290" x2="256" y2="340" stroke="#38bdf8" stroke-width="10" stroke-linecap="round"/>
  <line x1="176" y1="210" x2="126" y2="210" stroke="#38bdf8" stroke-width="10" stroke-linecap="round"/>
  <path d="M192 150 A 90 90 0 0 1 320 150" fill="none" stroke="#38bdf8" stroke-width="8" stroke-linecap="round"/>
  <path d="M166 124 A 116 116 0 0 1 346 124" fill="none" stroke="#38bdf8" stroke-width="5" stroke-linecap="round" opacity="0.5"/>
  <rect x="160" y="340" width="192" height="20" rx="10" fill="#38bdf8" opacity="0.4"/>
  <rect x="192" y="372" width="128" height="16" rx="8" fill="#38bdf8" opacity="0.25"/>
  <text x="256" y="460" text-anchor="middle" fill="#94a3b8" font-size="36" font-weight="700" font-family="sans-serif">JMENET</text>
</svg>
