<svg xmlns="http://www.w3.org/2000/svg" viewBox="0 0 192 192" width="192" height="192">
  <defs>
    <radialGradient id="g" cx="50%" cy="50%" r="50%">
      <stop offset="0%" stop-color="#38bdf8" />
      <stop offset="100%" stop-color="#0a0e1a" />
    </radialGradient>
  </defs>
  <rect width="192" height="192" rx="32" fill="#0a0e1a"/>
  <circle cx="96" cy="80" r="30" fill="none" stroke="#38bdf8" stroke-width="4"/>
  <circle cx="96" cy="80" r="6" fill="#38bdf8"/>
  <line x1="96" y1="50" x2="96" y2="30" stroke="#38bdf8" stroke-width="4" stroke-linecap="round"/>
  <line x1="126" y1="80" x2="146" y2="80" stroke="#38bdf8" stroke-width="4" stroke-linecap="round"/>
  <line x1="96" y1="110" x2="96" y2="130" stroke="#38bdf8" stroke-width="4" stroke-linecap="round"/>
  <line x1="66" y1="80" x2="46" y2="80" stroke="#38bdf8" stroke-width="4" stroke-linecap="round"/>
  <path d="M72 56 A 34 34 0 0 1 120 56" fill="none" stroke="#38bdf8" stroke-width="3" stroke-linecap="round"/>
  <path d="M62 46 A 44 44 0 0 1 130 46" fill="none" stroke="#38bdf8" stroke-width="2" stroke-linecap="round" opacity="0.5"/>
  <rect x="60" y="130" width="72" height="8" rx="4" fill="#38bdf8" opacity="0.4"/>
  <rect x="72" y="142" width="48" height="6" rx="3" fill="#38bdf8" opacity="0.25"/>
  <text x="96" y="175" text-anchor="middle" fill="#94a3b8" font-size="14" font-weight="700" font-family="sans-serif">JMENET</text>
</svg>
